<?xml version="1.0" encoding="utf-8"?>
<!-- Generator: Adobe Illustrator 22.1.0, SVG Export Plug-In . SVG Version: 6.00 Build 0)  -->
<svg version="1.1" id="Ebene_3" xmlns="http://www.w3.org/2000/svg" xmlns:xlink="http://www.w3.org/1999/xlink" x="0px" y="0px"
	 viewBox="0 0 16 16" style="enable-background:new 0 0 16 16;" xml:space="preserve">
<path d="M7.2,6.8c0,0.1-0.6,1.1-1.8,3.1c-0.1,0.2-0.3,0.3-0.4,0.3H3.4c-0.1,0-0.2,0-0.2-0.1c0-0.1,0-0.2,0-0.2l1.7-3.1c0,0,0,0,0,0
	L3.8,4.9c-0.1-0.1-0.1-0.2,0-0.3c0-0.1,0.1-0.1,0.2-0.1h1.6c0.2,0,0.3,0.1,0.5,0.3L7.2,6.8z M12.8,2.4c0.1,0.1,0.1,0.2,0,0.3
	L9.1,9.1v0l2.3,4.2c0.1,0.1,0.1,0.2,0,0.3c0,0.1-0.1,0.1-0.2,0.1H9.6c-0.2,0-0.3-0.1-0.5-0.3L6.8,9.1c0.1-0.1,1.3-2.3,3.6-6.5
	c0.1-0.2,0.3-0.3,0.4-0.3h1.7C12.6,2.3,12.7,2.3,12.8,2.4z"/>
</svg>
