<?xml version="1.0" encoding="utf-8"?>
<!-- Generator: Adobe Illustrator 23.0.1, SVG Export Plug-In . SVG Version: 6.00 Build 0)  -->
<svg version="1.1" id="Layer_1" xmlns="http://www.w3.org/2000/svg" xmlns:xlink="http://www.w3.org/1999/xlink" x="0px" y="0px"
	 viewBox="0 0 16 16" style="enable-background:new 0 0 16 16;" xml:space="preserve">
<g>
	<polygon points="5.7,8.5 6.1,8.5 6.1,10.4 6.5,10.4 6.5,8.5 6.8,8.5 6.8,8.2 5.7,8.2 	"/>
	<path d="M8,6.8c0.1,0,0.1,0,0.2-0.1c0,0,0.1-0.1,0.1-0.2V5.7c0-0.1,0-0.1-0.1-0.1c0,0-0.1,0-0.2,0s-0.1,0-0.1,0L7.8,5.7v1
		C7.8,6.8,7.8,6.8,8,6.8L8,6.8z"/>
	<path d="M8.8,8.7c-0.1,0-0.1,0-0.2,0.1c-0.1,0-0.1,0-0.2,0.1V8.2H8.2v2.2h0.3v-0.2c0.1,0.1,0.1,0.1,0.2,0.1s0.1,0,0.2,0
		c0.1,0,0.2,0,0.2-0.1c0.1-0.1,0.1-0.2,0.1-0.3V9.2c0-0.2,0-0.2-0.1-0.3C9,8.8,8.9,8.7,8.8,8.7z M8.8,10C8.8,10.1,8.8,10.1,8.8,10
		L8.8,10l-0.2,0.1c0,0-0.1,0-0.1-0.1V9l0.1-0.1h0.1c0,0.1,0,0.1,0,0.1s0,0.1,0,0.2L8.8,10L8.8,10z"/>
	<path d="M7.6,10L7.6,10l-0.2,0.1H7.4V10V8.7H7v1.4c0,0.1,0,0.2,0.1,0.2c0.1,0.1,0.1,0.1,0.2,0.1s0.2,0,0.2-0.1
		c0.1,0,0.2-0.1,0.2-0.2v0.2H8V8.7H7.6V10L7.6,10z"/>
	<path d="M8,2.6C5,2.6,2.6,5,2.6,8S5,13.4,8,13.4S13.4,11,13.4,8S11,2.6,8,2.6z M8.8,5.3h0.4v1.4c0,0.1,0,0.1,0,0.1h0.1
		c0,0,0.1,0,0.1-0.1c0.1,0,0.1-0.1,0.2-0.1V5.3h0.4v1.9H9.5V6.9C9.5,7,9.5,7.1,9.4,7.1C9.3,7.2,9.2,7.2,9.2,7.2
		c-0.1,0-0.2,0-0.2-0.1c0-0.1-0.1-0.2-0.1-0.2V5.3z M7.5,5.7c0-0.2,0.1-0.2,0.2-0.3C7.7,5.3,7.8,5.2,8,5.2s0.3,0.1,0.4,0.2
		c0.2,0.1,0.2,0.2,0.2,0.3v0.9c0,0.2-0.1,0.3-0.2,0.4C8.3,7.2,8.2,7.2,8,7.2S7.7,7.1,7.6,7C7.5,6.9,7.5,6.8,7.5,6.6V5.7L7.5,5.7z
		 M6.5,4.6l0.3,1l0,0l0.2-1h0.5L6.9,6.1v1H6.5V6.1L6,4.6H6.5z M11.4,9.9c0,0.7-0.5,1.2-1.2,1.2H6c-0.7,0-1.2-0.5-1.2-1.2V8.9
		c0-0.7,0.5-1.2,1.2-1.2h4.2c0.7,0,1.2,0.5,1.2,1.2L11.4,9.9L11.4,9.9z"/>
	<path d="M9.9,8.7c-0.2,0-0.3,0.1-0.4,0.2C9.4,8.9,9.3,9,9.3,9.2v0.8c0,0.2,0.1,0.3,0.2,0.4c0.1,0.1,0.2,0.2,0.4,0.2
		s0.3-0.1,0.4-0.2s0.2-0.2,0.2-0.4V9.9h-0.3v0.1c0,0.1,0,0.2,0,0.2s-0.1,0.1-0.2,0.1c-0.1,0-0.1,0-0.1-0.1c0,0,0-0.1,0-0.2V9.6h0.5
		V9.2c0-0.2,0-0.2-0.1-0.4C10.2,8.7,10,8.7,9.9,8.7z M10,9.3H9.7V9.2c0-0.1,0-0.2,0-0.2l0.1-0.1c0.1,0,0.1,0,0.1,0.1
		c0,0,0,0.1,0,0.2L10,9.3L10,9.3z"/>
</g>
</svg>
