<?xml version="1.0" encoding="utf-8"?>
<!-- Generator: Adobe Illustrator 23.0.1, SVG Export Plug-In . SVG Version: 6.00 Build 0)  -->
<svg version="1.1" id="Layer_1" xmlns="http://www.w3.org/2000/svg" xmlns:xlink="http://www.w3.org/1999/xlink" x="0px" y="0px"
	 viewBox="0 0 16 16" style="enable-background:new 0 0 16 16;" xml:space="preserve">
<g>
	<g>
		<path d="M8.8,10.2V9.5c0,0,0.6-0.5,0.6-0.9c0,0,0.3-0.2,0.3-0.6c0-0.3-0.1-0.3-0.1-0.3s0.2-0.4,0.2-0.8c0-0.7-0.4-1.3-1-1.3
			c0,0-0.3-0.4-0.7-0.4C7.2,5.3,6.4,5.9,6.4,7c0,0.4,0.2,0.8,0.2,0.8S6.5,7.9,6.5,8.1c0,0.4,0.3,0.6,0.3,0.6c0,0.4,0.6,0.9,0.6,0.9
			v0.6c-0.3,0.9-2.2,0.3-2.2,2.4h5.8C11.1,10.4,9.2,11.1,8.8,10.2z"/>
	</g>
	<g>
		<path d="M10.5,7c0,0.3-0.1,0.5-0.1,0.7c0,0.1,0.1,0.2,0.1,0.4c0,0.9-0.9,1.8-0.9,1.8c0.2,0.1,0.9,0.4,1.1,0.6h2.9
			c0-1.9-1.6-1.4-1.8-2.2V7.7c0.1-0.1,0.4-0.5,0.4-0.8c0.1,0,0.3-0.2,0.3-0.4c0-0.2-0.1-0.3-0.1-0.4c0,0,0.1-0.3,0.1-0.6
			c0-0.6-0.1-1.3-0.7-1.3c0,0-0.1-0.4-0.7-0.4c-0.8,0-1.3,0.6-1.4,1.3C10.2,5.5,10.5,6.1,10.5,7z"/>
	</g>
	<g>
		<path d="M6.7,9.9C6.4,9.7,6.2,9.3,6.1,9C5.9,8.9,5.7,8.7,5.6,8.5V8.1c0.1,0,0.3,0,0.4,0C5.7,7.9,5.7,7.3,5.7,7
			c0-0.8,0.4-1.5,0.9-1.9C6.4,4.4,6,3.9,5.1,3.9c-0.4,0-0.6,0.4-0.6,0.4c-1.9,0-0.9,3-1.4,3.5c0,0,0.4,0.4,1.4,0.4v0.4
			C4.2,9.3,2.7,9,2.7,10.4h3C5.9,10.3,6.7,9.9,6.7,9.9z"/>
	</g>
</g>
</svg>
