<svg xmlns="http://www.w3.org/2000/svg" viewBox="0 0 16 16"><title>047-cv</title><path d="M9.36,3H3.91V13h8.18V5.73Zm1.82,9.09H4.82V3.91H8.91V5.73h1.82l.45.45v5.91ZM8.37,7.51c-.1-.16-.42-.26-.73-.4a3.24,3.24,0,0,1-.39-.2V6.58a.65.65,0,0,0,.16-.41c.07,0,.15-.12.16-.2s0-.27-.11-.25a1.82,1.82,0,0,0,0-.36.64.64,0,0,0-1.26,0,1.65,1.65,0,0,0,0,.36c-.09,0-.1.18-.1.25s.08.22.16.2a.62.62,0,0,0,.15.41v.33l-.39.2c-.32.14-.64.24-.73.4A1.09,1.09,0,0,0,5.27,8H8.43A1.26,1.26,0,0,0,8.37,7.51Zm-3.1,2.76h5.46V9.82H5.27Zm0-.91h5.46V8.91H5.27Zm0,1.82h5.46v-.45H5.27Z"/></svg>
