<svg xmlns="http://www.w3.org/2000/svg" viewBox="0 0 16 16"><title>048-gear</title><path d="M12.43,7H11.06a3.54,3.54,0,0,0-.31-.74l.93-.93a.65.65,0,0,0,0-.81l-.37-.37a.65.65,0,0,0-.81,0l-.93.93C9.26,5,9,4.93,8.7,4.81V3.57a.55.55,0,0,0-.56-.5H7.58A.55.55,0,0,0,7,3.63V4.87a4.76,4.76,0,0,0-.87.31l-.75-.74a.65.65,0,0,0-.81,0l-.37.37a.64.64,0,0,0,0,.81l.81.8a3,3,0,0,0-.38.93H3.61a.56.56,0,0,0-.56.56v.56A.56.56,0,0,0,3.61,9H4.73a6.43,6.43,0,0,0,.43.93l-.74.75a.65.65,0,0,0,0,.81l.37.37a.65.65,0,0,0,.81,0l.87-.81a3.77,3.77,0,0,0,.93.31v1.18a.56.56,0,0,0,.56.56h.56a.55.55,0,0,0,.55-.56V11.14c.25-.12.56-.24.81-.37l.87.87a.65.65,0,0,0,.81,0l.37-.37a.65.65,0,0,0,0-.81l-1-1a4.4,4.4,0,0,0,.25-.75h1.3a.56.56,0,0,0,.56-.56V7.6A.66.66,0,0,0,12.43,7ZM7.89,9.4A1.37,1.37,0,1,1,9.26,8,1.37,1.37,0,0,1,7.89,9.4Z"/></svg>
