<svg xmlns="http://www.w3.org/2000/svg" viewBox="0 0 16 16"><title>049-job</title><path d="M3.13,13h9.74V3H3.13Zm9.26-3.14v2.65H3.7v-9h8.69V9.86Zm-8-2.29c0-.05,0-.08.07-.11.47-.15.65-.31.65-.71V4.47s0-.06.09-.06H5.7s.08,0,.08.06V6.79c0,.56-.26,1-1.1,1.12a.1.1,0,0,1-.14,0ZM8,10.82h3.78v.23H8Zm0-.69h3.78v.24H8ZM8,11.5H9.61v.24H8ZM8,9.44h3.78v.24H8Zm0-.68h3.78V9H8ZM7.6,8a1,1,0,0,1-1.17-1V5.39a1.06,1.06,0,0,1,1.17-1,1.06,1.06,0,0,1,1.16,1V6.92A1,1,0,0,1,7.6,8ZM8.11,5.4a.46.46,0,0,0-.51-.47.48.48,0,0,0-.53.47V6.91a.47.47,0,0,0,.53.47.47.47,0,0,0,.52-.47V5.4Zm2.63,2.52H9.54a.09.09,0,0,1-.1-.1V4.51c0-.07,0-.1.1-.1h1.15a.9.9,0,0,1,1,.93.84.84,0,0,1-.4.68v0a.8.8,0,0,1,.51.81A1,1,0,0,1,10.74,7.92ZM10.59,5h-.51v.81h.54a.4.4,0,0,0,.45-.42C11.07,5.09,10.88,5,10.59,5Zm0,1.36h-.53v1h.57a.47.47,0,0,0,.53-.49A.5.5,0,0,0,10.61,6.34ZM4.42,8.76h3v3h-3Z"/></svg>
