<?xml version="1.0" encoding="utf-8"?>
<!-- Generator: Adobe Illustrator 22.1.0, SVG Export Plug-In . SVG Version: 6.00 Build 0)  -->
<svg version="1.1" id="Ebene_2" xmlns="http://www.w3.org/2000/svg" xmlns:xlink="http://www.w3.org/1999/xlink" x="0px" y="0px"
	 viewBox="0 0 16 16" style="enable-background:new 0 0 16 16;" xml:space="preserve">
<g id="XMLID_138_">
	<path id="XMLID_142_" d="M13.1,4.4c-0.1-0.4-0.3-0.7-0.6-1c-0.3-0.3-0.6-0.5-1-0.6c-0.3-0.1-0.7-0.2-1.3-0.2c-0.6,0-0.8,0-2.2,0
		s-1.6,0-2.2,0c-0.6,0-1,0.1-1.3,0.2C4.1,3,3.8,3.2,3.5,3.5S3,4.1,2.9,4.4C2.7,4.8,2.6,5.2,2.6,5.7c0,0.6,0,0.8,0,2.2s0,1.6,0,2.2
		c0,0.6,0.1,1,0.2,1.3c0.1,0.4,0.3,0.7,0.6,1c0.3,0.3,0.6,0.5,1,0.6c0.3,0.1,0.7,0.2,1.3,0.2c0.6,0,0.8,0,2.2,0s1.6,0,2.2,0
		c0.6,0,1-0.1,1.3-0.2c0.4-0.1,0.7-0.3,1-0.6c0.3-0.3,0.5-0.6,0.6-1c0.1-0.3,0.2-0.7,0.2-1.3c0-0.6,0-0.8,0-2.2s0-1.6,0-2.2
		C13.3,5.2,13.2,4.8,13.1,4.4z M12.3,10.1c0,0.5-0.1,0.8-0.2,1c-0.1,0.2-0.2,0.4-0.4,0.6s-0.4,0.3-0.6,0.4c-0.2,0.1-0.5,0.2-1,0.2
		c-0.6,0-0.7,0-2.2,0s-1.6,0-2.2,0c-0.5,0-0.8-0.1-1-0.2c-0.2-0.1-0.4-0.2-0.6-0.4c-0.2-0.2-0.3-0.4-0.4-0.6c-0.1-0.2-0.2-0.5-0.2-1
		c0-0.6,0-0.7,0-2.2s0-1.6,0-2.2c0-0.5,0.1-0.8,0.2-1C3.9,4.5,4,4.4,4.2,4.2C4.4,4,4.5,3.9,4.8,3.8c0.2-0.1,0.5-0.2,1-0.2
		c0.6,0,0.7,0,2.2,0s1.6,0,2.2,0c0.5,0,0.8,0.1,1,0.2c0.2,0.1,0.4,0.2,0.6,0.4s0.3,0.4,0.4,0.6c0.1,0.2,0.2,0.5,0.2,1
		c0,0.6,0,0.7,0,2.2S12.4,9.6,12.3,10.1z"/>
	<path id="XMLID_145_" d="M8,5.2C6.4,5.2,5.2,6.4,5.2,8s1.2,2.8,2.8,2.8s2.8-1.2,2.8-2.8S9.5,5.2,8,5.2z M8,9.8C7,9.8,6.2,9,6.2,8
		C6.2,7,7,6.2,8,6.2S9.8,7,9.8,8C9.8,9,9,9.8,8,9.8z"/>
	<circle id="XMLID_143_" cx="10.8" cy="5.1" r="0.6"/>
</g>
</svg>
