<?xml version="1.0" encoding="utf-8"?>
<!-- Generator: Adobe Illustrator 22.1.0, SVG Export Plug-In . SVG Version: 6.00 Build 0)  -->
<svg version="1.1" id="Ebene_2" xmlns="http://www.w3.org/2000/svg" xmlns:xlink="http://www.w3.org/1999/xlink" x="0px" y="0px"
	 viewBox="0 0 16 16" style="enable-background:new 0 0 16 16;" xml:space="preserve">
<path d="M8.7,5.9C8.2,6,7.9,6.5,8,7l0,0.2l-0.2,0C7.1,7,6.5,6.7,6,6.2L5.8,6L5.7,6.2C5.6,6.6,5.7,7,5.9,7.3C6.1,7.5,6,7.5,5.8,7.4
	c-0.1,0-0.2-0.1-0.2,0c0,0,0.1,0.4,0.1,0.5C5.8,8,6,8.2,6.3,8.3l0.2,0.1l-0.2,0C6,8.4,6,8.4,6,8.5C6.1,8.8,6.4,9,6.7,9.1L7,9.2
	L6.8,9.3c-0.3,0.2-0.7,0.3-1,0.3c-0.2,0-0.3,0-0.3,0c0,0,0.5,0.3,0.7,0.3c0.8,0.2,1.8,0.1,2.5-0.3c0.5-0.3,1-0.9,1.3-1.5
	c0.1-0.3,0.3-0.9,0.3-1.1c0-0.2,0-0.2,0.2-0.4c0.1-0.1,0.2-0.3,0.3-0.3c0-0.1,0-0.1-0.2,0c-0.3,0.1-0.4,0.1-0.2-0.1
	c0.1-0.1,0.3-0.3,0.3-0.4c0,0-0.1,0-0.1,0c-0.1,0-0.2,0.1-0.3,0.1L9.9,6.1L9.7,6C9.6,5.9,9.4,5.9,9.4,5.8C9.2,5.8,8.9,5.8,8.7,5.9z
	 M8,13.4c-3,0-5.4-2.4-5.4-5.4C2.6,5,5,2.6,8,2.6S13.4,5,13.4,8C13.4,10.9,10.9,13.4,8,13.4z"/>
</svg>
