<?xml version="1.0" encoding="utf-8"?>
<!-- Generator: Adobe Illustrator 22.1.0, SVG Export Plug-In . SVG Version: 6.00 Build 0)  -->
<svg version="1.1" xmlns="http://www.w3.org/2000/svg" xmlns:xlink="http://www.w3.org/1999/xlink" x="0px" y="0px"
	 viewBox="0 0 16 16" style="enable-background:new 0 0 16 16;" xml:space="preserve">
<style type="text/css">
	.st0{display:none;}
	.st1{display:inline;}
</style>
<g id="Ebene_1" class="st0">
	<title>001-arrow-top</title>
	<path class="st1" d="M12.9,7.1L12,8.1L9.6,6c-0.4-0.3-0.7-0.7-1-1.1v8.5H7.4V4.9C7.1,5.3,6.7,5.7,6.3,6L4,8.1L3.1,7.1L8,2.7
		L12.9,7.1z"/>
</g>
<g id="Ebene_2">
</g>
<g id="Ebene_3">
</g>
<g id="Ebene_4">
</g>
<g id="hidden_ey">
	<g id="Page-1">
		<g id="icon-21-eye-hidden">
			<path id="eye-hidden" d="M4.4,10.2C2.8,9.3,2,8,2,8s1.8-3.2,6-3.2c0.6,0,1.1,0.1,1.7,0.2L9.3,5.4C8.9,5.3,8.4,5.2,8,5.2
				C4.3,5.2,2.6,8,2.6,8s0.7,1.1,2.1,1.9L4.4,10.2L4.4,10.2L4.4,10.2z M6.3,11c0.5,0.1,1.1,0.2,1.7,0.2c4.1,0,6-3.2,6-3.2
				s-0.7-1.3-2.3-2.2l-0.3,0.3C12.7,6.9,13.4,8,13.4,8s-1.7,2.8-5.4,2.8c-0.4,0-0.9,0-1.3-0.1L6.3,11L6.3,11L6.3,11z M9.8,7.6
				c0,0.1,0,0.3,0,0.4C9.8,9,9,9.8,8,9.8c-0.1,0-0.3,0-0.4,0L8,9.4c0.4,0,0.7-0.1,1-0.4c0.3-0.3,0.4-0.6,0.4-1L9.8,7.6L9.8,7.6
				L9.8,7.6z M8.4,6.2c-0.1,0-0.3,0-0.4,0C7,6.2,6.2,7,6.2,8c0,0.1,0,0.3,0,0.4L6.6,8c0-0.4,0.1-0.7,0.4-1c0.3-0.3,0.6-0.4,1-0.4
				L8.4,6.2L8.4,6.2L8.4,6.2z M11.7,3.9l-7.8,7.8l0.5,0.5l7.8-7.8L11.7,3.9L11.7,3.9z"/>
		</g>
	</g>
</g>
</svg>
