<?xml version="1.0" encoding="utf-8"?>
<!-- Generator: Adobe Illustrator 23.0.4, SVG Export Plug-In . SVG Version: 6.00 Build 0)  -->
<svg version="1.1" id="Layer_1" xmlns:sketch="http://www.bohemiancoding.com/sketch/ns"
	 xmlns="http://www.w3.org/2000/svg" xmlns:xlink="http://www.w3.org/1999/xlink" x="0px" y="0px" viewBox="0 0 16 16"
	 style="enable-background:new 0 0 16 16;" xml:space="preserve">
<path id="Shape" class="st0" d="M8,4c2,0,3.7,1.6,3.7,3.7c0,0.4-0.1,0.9-0.3,1.3l2.1,2.1c1.1-0.9,2-2.1,2.5-3.4
	c-1.2-3.2-4.4-5.5-8-5.5c-1,0-2,0.2-2.9,0.5l1.6,1.6C7.1,4.1,7.6,4,8,4L8,4z M0.7,2l1.7,1.7L2.7,4C1.5,4.9,0.5,6.2,0,7.6
	c1.2,3.2,4.4,5.5,8,5.5c1.1,0,2.2-0.2,3.2-0.6l0.3,0.3l2.1,2.1l0.9-0.9L1.7,1.1L0.7,2L0.7,2z M4.7,6l1.1,1.1v0.5
	c0,1.2,0.9,2.2,2.2,2.2c0.1,0,0.3,0,0.5-0.1l1.1,1.1c-0.5,0.3-1,0.4-1.6,0.4c-2,0-3.7-1.6-3.7-3.7C4.4,7.1,4.5,6.5,4.7,6L4.7,6z
	 M7.9,5.4l2.3,2.3V7.6C10.2,6.3,9.2,5.4,7.9,5.4C8,5.4,8,5.4,7.9,5.4L7.9,5.4z"/>
</svg>
