<?xml version="1.0" encoding="utf-8"?>
<!-- Generator: Adobe Illustrator 22.1.0, SVG Export Plug-In . SVG Version: 6.00 Build 0)  -->
<svg version="1.1" id="Ebene_3" xmlns="http://www.w3.org/2000/svg" xmlns:xlink="http://www.w3.org/1999/xlink" x="0px" y="0px"
	 viewBox="0 0 16 16" style="enable-background:new 0 0 16 16;" xml:space="preserve">
<path d="M8,2.6C5,2.6,2.6,5,2.6,8S5,13.4,8,13.4s5.4-2.4,5.4-5.4C13.4,5,10.9,2.6,8,2.6z M8.5,9.6c-0.5,0-0.9-0.2-1-0.5
	c0,0-0.2,1-0.3,1.2c-0.2,0.7-0.7,1.3-0.8,1.4c0,0-0.1,0-0.1,0c0-0.1-0.1-0.9,0-1.6c0.1-0.3,0.5-2.3,0.5-2.3S6.8,7.4,6.8,7
	c0-0.6,0.4-1.1,0.8-1.1c0.4,0,0.6,0.3,0.6,0.6c0,0.4-0.2,1-0.4,1.5C7.7,8.5,8,8.9,8.4,8.9c0.8,0,1.3-1,1.3-2.3C9.8,5.7,9.2,5,8,5
	C6.7,5,5.9,6,5.9,7c0,0.4,0.1,0.6,0.3,0.8C6.3,8,6.3,8,6.3,8.1c0,0.1-0.1,0.3-0.1,0.3c0,0.1-0.1,0.1-0.2,0.1
	C5.4,8.3,5.1,7.7,5.1,6.9c0-1.2,1-2.7,3-2.7c1.6,0,2.7,1.2,2.7,2.4C10.8,8.4,9.9,9.6,8.5,9.6z"/>
</svg>
