<?xml version="1.0" encoding="utf-8"?>
<!-- Generator: Adobe Illustrator 23.0.1, SVG Export Plug-In . SVG Version: 6.00 Build 0)  -->
<svg version="1.1" id="Layer_1" xmlns="http://www.w3.org/2000/svg" xmlns:xlink="http://www.w3.org/1999/xlink" x="0px" y="0px"
	 viewBox="0 0 16 16" style="enable-background:new 0 0 16 16;" xml:space="preserve">
<g>
	<path d="M8.5,7.3L8.5,7.3C8.5,7.3,8.5,7.3,8.5,7.3L8.5,7.3z"/>
	<path d="M13.9,1H2.1C1.5,1,1,1.4,1,2v12c0,0.6,0.5,1,1,1h11.9c0.6,0,1-0.4,1-1V2C15,1.4,14.5,1,13.9,1z M5.3,12.7H3.2V6.4h2.1V12.7
		z M4.2,5.5L4.2,5.5C3.5,5.5,3,5,3,4.4c0-0.6,0.5-1.1,1.2-1.1c0.7,0,1.2,0.5,1.2,1.1C5.4,5,4.9,5.5,4.2,5.5z M12.8,12.7h-2.1V9.3
		c0-0.8-0.3-1.4-1.1-1.4c-0.6,0-0.9,0.4-1.1,0.8C8.5,8.8,8.5,9,8.5,9.2v3.5H6.4c0,0,0-5.7,0-6.3h2.1v0.9c0.3-0.4,0.8-1,1.9-1
		c1.4,0,2.4,0.9,2.4,2.8L12.8,12.7L12.8,12.7z"/>
</g>
</svg>
