<?xml version="1.0" encoding="utf-8"?>
<!-- Generator: Adobe Illustrator 23.0.1, SVG Export Plug-In . SVG Version: 6.00 Build 0)  -->
<svg version="1.1" id="Layer_1" xmlns="http://www.w3.org/2000/svg" xmlns:xlink="http://www.w3.org/1999/xlink" x="0px" y="0px"
	 viewBox="0 0 16 16" style="enable-background:new 0 0 16 16;" xml:space="preserve">
<g>
	<path d="M8.4,7.5L8.4,7.5L8.4,7.5L8.4,7.5z"/>
	<path d="M12.5,2.6H3.4C3,2.6,2.6,2.9,2.6,3.4v9.3c0,0.5,0.4,0.8,0.8,0.8h9.2c0.5,0,0.8-0.3,0.8-0.8V3.4C13.4,2.9,13,2.6,12.5,2.6z
		 M5.9,11.6H4.3V6.8h1.6V11.6z M5.1,6.1L5.1,6.1c-0.5,0-0.9-0.4-0.9-0.8c0-0.5,0.4-0.8,0.9-0.8S6,4.8,6,5.2C6,5.7,5.6,6.1,5.1,6.1z
		 M11.7,11.6h-1.6V9c0-0.6-0.2-1.1-0.8-1.1c-0.5,0-0.7,0.3-0.8,0.6c0,0.1,0,0.2,0,0.4v2.7H6.8c0,0,0-4.4,0-4.9h1.6v0.7
		C8.6,7.2,9,6.7,9.8,6.7c1.1,0,1.9,0.7,1.9,2.2L11.7,11.6L11.7,11.6z"/>
</g>
</svg>
