<?xml version="1.0" encoding="utf-8"?>
<!-- Generator: Adobe Illustrator 23.0.1, SVG Export Plug-In . SVG Version: 6.00 Build 0)  -->
<svg version="1.1" id="Layer_1" xmlns="http://www.w3.org/2000/svg" xmlns:xlink="http://www.w3.org/1999/xlink" x="0px" y="0px"
	 viewBox="0 0 16 16" style="enable-background:new 0 0 16 16;" xml:space="preserve">
<g>
	<polygon points="5,8.6 5.5,8.6 5.5,11.1 6,11.1 6,8.6 6.5,8.6 6.5,8.2 5,8.2 	"/>
	<path d="M8,6.5c0.1,0,0.1,0,0.2-0.1c0,0,0.1-0.1,0.1-0.2V5c0-0.1,0-0.1-0.1-0.1c0,0-0.1,0-0.2,0c-0.1,0-0.1,0-0.1,0
		c0,0-0.1,0.1-0.1,0.1v1.3c0,0.1,0,0.1,0.1,0.2C7.9,6.5,8,6.5,8,6.5z"/>
	<path d="M9.1,8.9C9,8.9,9,8.9,8.9,9C8.8,9,8.8,9,8.7,9.1V8.2H8.3v2.9h0.4v-0.2c0.1,0.1,0.1,0.1,0.2,0.1c0.1,0,0.1,0,0.2,0
		c0.1,0,0.2,0,0.3-0.1c0.1-0.1,0.1-0.2,0.1-0.4V9.5c0-0.2,0-0.3-0.1-0.4C9.3,9,9.2,8.9,9.1,8.9z M9.1,10.6c0,0.1,0,0.1,0,0.1
		c0,0-0.1,0-0.1,0c0,0-0.1,0-0.1,0c0,0-0.1,0-0.1-0.1V9.3c0,0,0.1-0.1,0.1-0.1c0,0,0.1,0,0.1,0C9,9.3,9,9.3,9,9.3c0,0,0,0.1,0,0.2
		V10.6z"/>
	<path d="M7.5,10.6c0,0-0.1,0.1-0.1,0.1c0,0-0.1,0-0.1,0c0,0-0.1,0-0.1,0c0,0,0-0.1,0-0.1V8.9H6.7v1.8c0,0.1,0,0.2,0.1,0.3
		c0.1,0.1,0.1,0.1,0.2,0.1c0.1,0,0.2,0,0.3-0.1c0.1,0,0.2-0.1,0.3-0.2v0.2h0.4V8.9H7.5L7.5,10.6L7.5,10.6z"/>
	<path d="M8,1C4.1,1,1,4.1,1,8c0,3.9,3.1,7,7,7s7-3.1,7-7C15,4.1,11.9,1,8,1z M9.1,4.5h0.5v1.8c0,0.1,0,0.1,0,0.1c0,0,0.1,0,0.1,0
		c0,0,0.1,0,0.1-0.1c0.1,0,0.1-0.1,0.2-0.1V4.5h0.5v2.4H10V6.6C9.9,6.7,9.9,6.8,9.8,6.8C9.7,6.9,9.6,6.9,9.5,6.9
		c-0.1,0-0.2,0-0.3-0.1C9.2,6.7,9.1,6.6,9.1,6.5C9.1,6.5,9.1,4.5,9.1,4.5z M7.3,5c0-0.2,0.1-0.3,0.2-0.4C7.6,4.5,7.8,4.4,8,4.4
		c0.2,0,0.4,0.1,0.5,0.2C8.7,4.7,8.7,4.8,8.7,5v1.2c0,0.2-0.1,0.4-0.2,0.5C8.4,6.9,8.2,6.9,8,6.9c-0.2,0-0.4-0.1-0.5-0.2
		C7.4,6.6,7.3,6.4,7.3,6.2L7.3,5L7.3,5z M6,3.6l0.4,1.3h0l0.3-1.3h0.6L6.6,5.5v1.3H6.1V5.6l-0.7-2H6z M12.4,10.4
		c0,0.9-0.7,1.6-1.6,1.6H5.4c-0.9,0-1.6-0.7-1.6-1.6V9.2c0-0.9,0.7-1.6,1.6-1.6h5.5c0.9,0,1.6,0.7,1.6,1.6V10.4z"/>
	<path d="M10.4,8.9c-0.2,0-0.4,0.1-0.5,0.2C9.8,9.2,9.7,9.3,9.7,9.5v1c0,0.2,0.1,0.4,0.2,0.5c0.1,0.1,0.3,0.2,0.5,0.2
		c0.2,0,0.4-0.1,0.5-0.2c0.1-0.1,0.2-0.3,0.2-0.5v-0.1h-0.4v0.1c0,0.1,0,0.2,0,0.2c0,0-0.1,0.1-0.2,0.1c-0.1,0-0.1,0-0.1-0.1
		c0,0,0-0.1,0-0.2v-0.4H11V9.5C11,9.3,11,9.2,10.9,9C10.8,8.9,10.6,8.9,10.4,8.9z M10.6,9.7h-0.4V9.5c0-0.1,0-0.2,0-0.2
		c0,0,0.1-0.1,0.1-0.1c0.1,0,0.1,0,0.1,0.1c0,0,0,0.1,0,0.2L10.6,9.7L10.6,9.7z"/>
</g>
</svg>
