<?xml version="1.0" encoding="utf-8"?>
<!-- Generator: Adobe Illustrator 23.0.1, SVG Export Plug-In . SVG Version: 6.00 Build 0)  -->
<svg version="1.1" id="Layer_1" xmlns="http://www.w3.org/2000/svg" xmlns:xlink="http://www.w3.org/1999/xlink" x="0px" y="0px"
	 viewBox="0 0 16 16" style="enable-background:new 0 0 16 16;" xml:space="preserve">
<g>
	<g>
		<path d="M9.1,10.9V10c0,0,0.8-0.7,0.9-1.3c0,0,0.4-0.3,0.4-0.8c0-0.4-0.2-0.4-0.2-0.4s0.3-0.5,0.3-1.1c0-1-0.5-1.8-1.4-1.8
			c0,0-0.4-0.5-1-0.5C6.8,4.2,5.7,5,5.7,6.5C5.7,7.1,6,7.6,6,7.6S5.9,7.7,5.9,8c0,0.6,0.4,0.8,0.4,0.8C6.3,9.3,7.1,10,7.1,10v0.9
			c-0.4,1.3-3,0.4-3,3.4h8.1C12.2,11.3,9.6,12.2,9.1,10.9z"/>
	</g>
	<g>
		<path d="M11.5,6.5c0,0.4-0.1,0.7-0.2,1c0,0.1,0.1,0.3,0.1,0.5c0,1.2-1.3,2.5-1.3,2.5c0.3,0.1,1.2,0.6,1.5,0.8h4
			c0-2.7-2.2-1.9-2.5-3V7.5c0.2-0.1,0.6-0.7,0.6-1.1c0.1,0,0.4-0.3,0.4-0.6c0-0.3-0.1-0.4-0.2-0.5c0,0,0.2-0.4,0.2-0.8
			c0-0.9-0.2-1.8-1-1.8c0,0-0.2-0.5-1-0.5c-1.1,0-1.8,0.8-2,1.8C11,4.4,11.5,5.3,11.5,6.5z"/>
	</g>
	<g>
		<path d="M6.1,10.5c-0.3-0.3-0.7-0.8-0.8-1.2C5,9.1,4.7,8.9,4.6,8.6V8.1c0.1,0,0.4,0,0.5,0C4.8,7.7,4.7,6.9,4.7,6.5
			c0-1.1,0.5-2.1,1.3-2.6C5.7,2.9,5.2,2.2,3.9,2.2c-0.5,0-0.8,0.5-0.8,0.5c-2.6,0-1.2,4.2-2,4.8c0,0,0.5,0.6,2,0.6v0.5
			c-0.4,1.1-2.5,0.7-2.5,2.7h4.1C5,11.1,6.1,10.5,6.1,10.5z"/>
	</g>
</g>
</svg>
