<?xml version="1.0" encoding="utf-8"?>
<!-- Generator: Adobe Illustrator 23.0.1, SVG Export Plug-In . SVG Version: 6.00 Build 0)  -->
<svg version="1.1" id="Ebene_1" xmlns="http://www.w3.org/2000/svg" xmlns:xlink="http://www.w3.org/1999/xlink" x="0px" y="0px"
	 viewBox="0 0 16 16" style="enable-background:new 0 0 16 16;" xml:space="preserve">
<style type="text/css">
	.st0{display:none;}
	.st1{display:inline;}
	.st2{fill:#1D1D1B;}
</style>
<g class="st0">
	<title>001-arrow-top</title>
	<path class="st1" d="M12.9,7.1l-0.9,1L9.6,6c-0.4-0.3-0.7-0.7-1-1.1v8.5H7.4V4.9C7.1,5.3,6.7,5.7,6.3,6L4,8.1l-0.9-1L8,2.7
		L12.9,7.1z"/>
</g>
<g id="Ebene_3">
</g>
<g id="Ebene_4">
</g>
<g>
	<path class="st2" d="M13.7,7.6H2.1C1.9,7.6,1.7,7.8,1.7,8s0.2,0.4,0.4,0.4h11.6c0.2,0,0.4-0.2,0.4-0.4S13.9,7.6,13.7,7.6z"/>
	<path class="st2" d="M2.1,5.3h11.6c0.2,0,0.4-0.2,0.4-0.4s-0.2-0.4-0.4-0.4H2.1c-0.2,0-0.4,0.2-0.4,0.4S1.9,5.3,2.1,5.3z"/>
	<path class="st2" d="M13.7,10.7H2.1c-0.2,0-0.4,0.2-0.4,0.4c0,0.2,0.2,0.4,0.4,0.4h11.6c0.2,0,0.4-0.2,0.4-0.4
		C14.1,10.9,13.9,10.7,13.7,10.7z"/>
</g>
</svg>
