<?xml version="1.0" encoding="utf-8"?>
<!-- Generator: Adobe Illustrator 23.0.0, SVG Export Plug-In . SVG Version: 6.00 Build 0)  -->
<svg version="1.1" id="Layer_1" xmlns="http://www.w3.org/2000/svg" xmlns:xlink="http://www.w3.org/1999/xlink" x="0px" y="0px"
	 viewBox="0 0 512 512" style="enable-background:new 0 0 512 512;" xml:space="preserve">
<style type="text/css">
	.st0{fill:#10161A;}
</style>
<path class="st0" d="M487,0H25C11.25,0,0,11.25,0,25v462c0,13.75,11.25,25,25,25h462c13.75,0,25-11.25,25-25V25
	C512,11.25,500.75,0,487,0z M360.84,32.17l2.96-2.77c9.25-8.88,24.04-8.88,33.29,0.18l16.64,16.27l1.11,1.11c2.4,2.4,2.4,6.1,0,8.51
	l-2.22,2.22c-2.4,2.4-6.47,2.59-8.88,0.18L386.18,40.5c-2.96-2.96-7.95-2.96-10.91,0l-2.96,2.77c-2.96,2.96-2.96,7.77,0,10.73
	l17.75,17.38c2.4,2.4,2.22,6.29-0.18,8.51l-2.22,2.22c-2.4,2.4-6.29,2.4-8.69,0l-17.94-17.38
	C351.78,55.85,351.78,41.24,360.84,32.17z M340.35,399l-1.17,71.56c0,6.16-5.28,11.44-11.73,11.44h-70.39
	c-6.45,0-11.73-5.28-11.73-11.44V399h-0.29v-23.17c0-24.93-20.82-45.16-46.34-45.16h-24.93c-25.51,0-46.34,20.24-46.34,45.16h-0.59
	v94.73c0,6.16-5.28,11.44-11.73,11.44H44.73C38.28,482,33,476.72,33,470.56V44.44C33,38.28,38.28,33,44.73,33h70.39
	c6.45,0,11.73,5.28,12.02,11.44v201.18c14.66-4.99,30.21-7.92,46.63-7.92h23.76v-0.29c25.51,0,46.34-20.24,46.34-45.16l1.47-23.17
	c0.88-5.28,5.57-9.38,11.44-9.38h70.39c5.57,0,10.56,4.11,11.44,9.38h0.29v23.17c0,34.9-13.49,66.87-35.49,91.21
	c22.58,24.63,36.37,56.89,36.37,92.38h0.59V399z M415.03,127.23l-17.94,17.38c-9.25,9.06-24.04,9.06-33.29,0.18l-2.96-2.77
	c-9.25-8.88-9.06-23.49,0.18-32.36l16.64-16.27l1.11-1.11c2.4-2.4,6.29-2.4,8.69,0l2.22,2.22c2.4,2.4,2.59,6.29,0.18,8.51
	l-17.57,17.01c-2.96,2.96-2.96,7.77,0,10.73l2.96,2.96c2.96,2.96,7.95,2.96,10.91,0l17.75-17.38c2.4-2.4,6.29-2.22,8.69,0.18
	l2.22,2.22C417.25,121.13,417.25,124.83,415.03,127.23z M478.65,141.47l-2.96,2.77c-9.25,9.06-24.04,8.88-33.29-0.18l-16.64-16.27
	l-1.11-1.11c-2.4-2.4-2.4-6.1,0-8.51l2.22-2.22c2.4-2.4,6.47-2.59,8.88-0.18l17.57,17.57c2.96,2.96,7.95,2.96,10.91,0l2.96-2.77
	c2.96-2.96,3.14-7.77,0-10.73l-17.75-17.38c-2.4-2.4-2.22-6.1,0.18-8.51l2.22-2.22c2.4-2.4,6.29-2.4,8.69-0.18l17.94,17.38
	C487.71,117.8,487.71,132.41,478.65,141.47z M478.65,64.72L462,81l-1.11,1.11c-2.4,2.4-6.29,2.4-8.69,0l-2.22-2.22
	c-2.4-2.4-2.59-6.29-0.18-8.51l17.57-17.2c2.96-2.96,2.96-7.77,0-10.54l-2.96-2.96c-2.96-2.96-7.95-2.96-10.91,0l-17.75,17.38
	c-2.4,2.4-6.29,2.22-8.69-0.18l-2.22-2.22c-2.4-2.4-2.4-6.1-0.18-8.51l17.75-17.57c9.25-8.88,24.04-9.06,33.29-0.18l2.96,2.77
	C487.89,41.24,487.71,55.66,478.65,64.72z"/>
</svg>
