<?xml version="1.0" encoding="utf-8"?>
<!-- Generator: Adobe Illustrator 23.0.2, SVG Export Plug-In . SVG Version: 6.00 Build 0)  -->
<svg version="1.1" id="Layer_1" xmlns="http://www.w3.org/2000/svg" xmlns:xlink="http://www.w3.org/1999/xlink" x="0px" y="0px"
	 viewBox="0 0 16 16" style="enable-background:new 0 0 16 16;" xml:space="preserve">
<style type="text/css">
	.st0{fill:#10161A;}
</style>
<path class="st0" d="M12.5,3h-9C3.2,3,3,3.2,3,3.5v9C3,12.8,3.2,13,3.5,13h9c0.3,0,0.5-0.2,0.5-0.5v-9C13,3.2,12.8,3,12.5,3z
	 M10,3.6L10,3.6c0.2-0.2,0.5-0.2,0.7-0.1l0.3,0.3l0,0c0,0,0,0.1,0,0.2l0,0c0,0-0.1,0.1-0.2,0l-0.3-0.3c-0.1-0.1-0.2-0.1-0.2,0
	l-0.1,0.1c-0.1,0.1-0.1,0.2,0,0.2l0.3,0.3c0,0,0,0.1,0,0.2l0,0c0,0-0.1,0-0.2,0l-0.4-0.3C9.9,4.1,9.9,3.8,10,3.6z M9.6,10.8l0,1.4
	c0,0.1-0.1,0.2-0.2,0.2H8c-0.1,0-0.2-0.1-0.2-0.2v-1.4h0v-0.5c0-0.5-0.4-0.9-0.9-0.9H6.4c-0.5,0-0.9,0.4-0.9,0.9h0v1.9
	c0,0.1-0.1,0.2-0.2,0.2H3.9c-0.1,0-0.2-0.1-0.2-0.2V3.9c0-0.1,0.1-0.2,0.2-0.2h1.4c0.1,0,0.2,0.1,0.2,0.2v3.9
	c0.3-0.1,0.6-0.2,0.9-0.2h0.5v0c0.5,0,0.9-0.4,0.9-0.9l0-0.5c0-0.1,0.1-0.2,0.2-0.2h1.4c0.1,0,0.2,0.1,0.2,0.2h0v0.5
	c0,0.7-0.3,1.3-0.7,1.8C9.4,9,9.6,9.6,9.6,10.3h0L9.6,10.8L9.6,10.8z M11.1,5.5l-0.4,0.3c-0.2,0.2-0.5,0.2-0.7,0L10,5.8
	c-0.2-0.2-0.2-0.5,0-0.6l0.3-0.3l0,0c0,0,0.1,0,0.2,0l0,0c0,0,0.1,0.1,0,0.2l-0.3,0.3c-0.1,0.1-0.1,0.2,0,0.2l0.1,0.1
	c0.1,0.1,0.2,0.1,0.2,0l0.3-0.3c0,0,0.1,0,0.2,0l0,0C11.1,5.4,11.1,5.4,11.1,5.5z M12.3,5.8L12.3,5.8C12.1,6,11.8,6,11.6,5.8
	l-0.3-0.3l0,0c0,0,0-0.1,0-0.2l0,0c0,0,0.1-0.1,0.2,0l0.3,0.3c0.1,0.1,0.2,0.1,0.2,0l0.1-0.1c0.1-0.1,0.1-0.2,0-0.2L11.8,5
	c0,0,0-0.1,0-0.2l0,0c0,0,0.1,0,0.2,0l0.4,0.3C12.5,5.3,12.5,5.6,12.3,5.8z M12.3,4.3L12,4.6l0,0c0,0-0.1,0-0.2,0l0,0
	c0,0-0.1-0.1,0-0.2l0.3-0.3c0.1-0.1,0.1-0.2,0-0.2l-0.1-0.1c-0.1-0.1-0.2-0.1-0.2,0l-0.3,0.3c0,0-0.1,0-0.2,0l0,0c0,0,0-0.1,0-0.2
	l0.3-0.3c0.2-0.2,0.5-0.2,0.7,0l0.1,0.1C12.5,3.8,12.5,4.1,12.3,4.3z"/>
</svg>
