<?xml version="1.0" encoding="utf-8"?>
<!-- Generator: Adobe Illustrator 23.0.4, SVG Export Plug-In . SVG Version: 6.00 Build 0)  -->
<svg version="1.1" id="Layer_1" xmlns:sketch="http://www.bohemiancoding.com/sketch/ns"
	 xmlns="http://www.w3.org/2000/svg" xmlns:xlink="http://www.w3.org/1999/xlink" x="0px" y="0px" viewBox="0 0 16 16"
	 style="enable-background:new 0 0 16 16;" xml:space="preserve">
<path id="Shape" class="st0" d="M8.8,4H7.2v3.2H4v1.6h3.2V12h1.6V8.8H12V7.2H8.8V4L8.8,4z M8,0C3.6,0,0,3.6,0,8s3.6,8,8,8s8-3.6,8-8
	S12.4,0,8,0L8,0z M8,14.4c-3.5,0-6.4-2.9-6.4-6.4S4.5,1.6,8,1.6s6.4,2.9,6.4,6.4S11.5,14.4,8,14.4L8,14.4z"/>
</svg>
