<?xml version="1.0" encoding="utf-8"?>
<!-- Generator: Adobe Illustrator 24.1.0, SVG Export Plug-In . SVG Version: 6.00 Build 0)  -->
<svg version="1.1" id="Ebene_1" xmlns="http://www.w3.org/2000/svg" xmlns:xlink="http://www.w3.org/1999/xlink" x="0px" y="0px"
	 viewBox="0 0 500 500" style="enable-background:new 0 0 500 500;" xml:space="preserve">
<style type="text/css">
	.st0{enable-background:new    ;}
</style>
<g>
	<polygon class="st0" points="290.8,208 222.7,70 154.6,208 2.3,230.1 112.5,337.6 86.5,489.3 222.7,417.7 358.9,489.3 332.9,337.6 
		443.1,230.1 	"/>
	<polygon class="st0" points="498.2,128.8 460.1,123.3 443.1,88.8 425.9,123.3 387.8,128.8 415.4,155.7 408.9,193.6 443,175.7 
		477.1,193.6 470.6,155.7 	"/>
	<polygon class="st0" points="314.2,79.6 336.5,67.9 358.8,79.6 354.6,54.8 372.6,37.2 347.6,33.6 336.5,11 325.4,33.6 300.4,37.2 
		318.4,54.8 	"/>
</g>
</svg>
