<?xml version="1.0" encoding="utf-8"?>
<!-- Generator: Adobe Illustrator 24.1.0, SVG Export Plug-In . SVG Version: 6.00 Build 0)  -->
<svg version="1.1" id="Ebene_1" xmlns="http://www.w3.org/2000/svg" xmlns:xlink="http://www.w3.org/1999/xlink" x="0px" y="0px"
	 viewBox="0 0 500 500" style="enable-background:new 0 0 500 500;" xml:space="preserve">
<g>
	<path d="M490.5,10.6c0,0-167.3-28-241.3,46.1c-25.6,25.6-53.4,56.9-78.7,86.7l-83.1,1.2L4,205.5l79.2,45.9c0,0,47.2,14.3,97.6,68.9
		c27.4,28.3,51.8,62.9,69.5,98.1l-0.1,0.1l45.8,79.2l60.9-83.4l1.3-83.4c30.4-26.4,61.8-54.7,86.2-79
		C513,183.3,490.5,10.6,490.5,10.6z M362.3,203.2c-35.5,0-64.3-28.8-64.3-64.3s28.8-64.3,64.3-64.3s64.3,28.8,64.3,64.3
		S397.8,203.2,362.3,203.2z"/>
	<path d="M53,343.4c-13.8,13.8-42.2,53.4-42.2,71.5c0,9,23.3-3.5,26.7,5s-12.9,38-6,44.9c7.8,7.9,38.6-8.1,48.5-4.7
		c8.2,2.9-4.8,25.7,3.8,25.4c17.3-0.5,56-29,69.2-42.2c26.8-27.5,26.8-71.4-0.1-98.9C125.6,316.5,80.9,316,53,343.4z M141.7,419.8
		c-0.4,0.5-0.8,1.1-1.2,1.6c-0.2,0.2-0.5,0.5-0.8,0.7c-8.2,7.8-29.8,22.8-40,22.5c-1.7-0.1-2.1-1.4-2.1-3.4c0-2.3,0.7-5.4,0.7-7.9
		c0-2.1-0.4-3.8-2-4.5c-6.2-2.5-24.5,6.1-29.6,0.9c-1-1-1.3-2.6-1.3-4.6c0.1-5.9,3.6-15,3.6-20.3c0-1-0.1-1.8-0.4-2.5
		c-2.5-5.4-16.3,1.4-16.7-4.2c0-0.4,0-0.7,0-1.1c0.2-11.5,15.4-33.6,23.1-41.3c20.6-15.7,49.9-11.7,65.6,8.8
		c6.4,8.4,9.5,18.4,9.5,28.5C150.1,402.3,147.3,411.7,141.7,419.8z"/>
</g>
</svg>
