<?xml version="1.0" encoding="utf-8"?>
<!-- Generator: Adobe Illustrator 24.1.0, SVG Export Plug-In . SVG Version: 6.00 Build 0)  -->
<svg version="1.1" id="Ebene_1" xmlns="http://www.w3.org/2000/svg" xmlns:xlink="http://www.w3.org/1999/xlink" x="0px" y="0px"
	 viewBox="0 0 500 500" style="enable-background:new 0 0 500 500;" xml:space="preserve">
<g>
	<path d="M196.7,100.5l0.1,48.2c79.9-0.1,144.7,64.7,144.8,144.6h48.2C389.7,186.7,303.3,100.4,196.7,100.5z"/>
	<path d="M196.6,4l0.1,48.2C329.9,52.1,437.9,160,438,293.2h48.2C486.1,133.4,356.5,3.9,196.6,4z"/>
	<path d="M254.9,296.8c0-22.3-18-40.3-40.3-40.3c-11.1,0-21.2,4.5-28.5,11.8L72.6,154.8c-75.4,77.9-75.4,201.5,0,279.4
		c77.1,79.7,204.3,81.8,284,4.6L243.1,325.3C250.4,318,254.9,307.9,254.9,296.8z"/>
</g>
</svg>
