<?xml version="1.0" encoding="utf-8"?>
<!-- Generator: Adobe Illustrator 24.3.0, SVG Export Plug-In . SVG Version: 6.00 Build 0)  -->
<svg version="1.1" id="Ebene_1" xmlns="http://www.w3.org/2000/svg" xmlns:xlink="http://www.w3.org/1999/xlink" x="0px" y="0px"
	 viewBox="0 0 24 24" style="enable-background:new 0 0 24 24;" xml:space="preserve">
<style type="text/css">
	.st0{fill-rule:evenodd;clip-rule:evenodd;fill:#F2A900;}
</style>
<g id="Ebene_1_1_">
</g>
<g id="Ebene_2_1_">
	<path class="st0" d="M23,8.2C16.2,7,16.2,7,16.2,7c-3.1-6.3-3.1-6.3-3.1-6.3C12.9,0.3,12.4,0,12,0c-0.5,0-0.9,0.3-1.1,0.7
		C7.8,7,7.8,7,7.8,7C1,8.2,1,8.2,1,8.2c-0.5,0.1-0.8,0.4-1,0.9c-0.1,0.4,0,0.9,0.3,1.3c4.8,5.1,4.8,5.1,4.8,5.1c-1,7.1-1,7.1-1,7.1
		c-0.1,0.5,0.1,0.9,0.5,1.2C5,24,5.5,24.1,5.9,23.9c6.1-3.2,6.1-3.2,6.1-3.2c6.1,3.2,6.1,3.2,6.1,3.2c0.2,0.1,0.4,0.1,0.5,0.1
		c0.3,0,0.5-0.1,0.7-0.3c0.4-0.3,0.6-0.7,0.5-1.2c-1-7.1-1-7.1-1-7.1c4.8-5.1,4.8-5.1,4.8-5.1c0.3-0.3,0.4-0.8,0.3-1.3
		C23.8,8.6,23.4,8.3,23,8.2z"/>
</g>
</svg>
