<?xml version="1.0" encoding="utf-8"?>
<!-- Generator: Adobe Illustrator 24.3.0, SVG Export Plug-In . SVG Version: 6.00 Build 0)  -->
<svg version="1.1" id="Ebene_1" xmlns="http://www.w3.org/2000/svg" xmlns:xlink="http://www.w3.org/1999/xlink" x="0px" y="0px"
	 viewBox="0 0 24 24" style="enable-background:new 0 0 24 24;" xml:space="preserve">
<style type="text/css">
	.st0{fill:#F2A900;}
</style>
<g>
	<path class="st0" d="M22,12.2c0,0,0-0.1,0-0.1c0-0.1,0-0.1,0-0.2c0-0.1,0-0.1,0-0.2c0,0,0,0,0,0c-0.2-1.1-0.6-2.2-1.2-3.2
		c0,0,0,0,0,0c0,0,0,0,0,0c-0.4-0.7-1-1.4-1.6-2L18.7,6c-0.4-0.4-0.9-0.7-1.4-1c0,0,0,0,0,0l0.5-0.8c0.2-0.3,0.1-0.7-0.2-0.9l-0.1,0
		c-0.3-0.2-0.7-0.1-0.9,0.2l-0.5,0.8c0,0,0,0,0,0c-1-0.4-2-0.7-3.1-0.8V2.8c0-0.3,0.2-0.5,0.5-0.5h1.1c0.3,0,0.5-0.2,0.5-0.5V0.9
		c0-0.3-0.2-0.5-0.5-0.5H9.5c-0.3,0-0.5,0.2-0.5,0.5v0.9c0,0.3,0.2,0.5,0.5,0.5h1.1c0.3,0,0.5,0.2,0.5,0.5v0.6c-0.1,0-0.2,0-0.3,0
		c-5,0.6-8.8,4.8-8.8,10C1.9,19,6.4,23.6,12,23.6s10.1-4.5,10.1-10.1C22.1,13,22,12.6,22,12.2z M19.8,13.5c0,4.3-3.5,7.8-7.8,7.8
		c-0.1,0-0.3,0-0.4,0c-4-0.2-7.2-3.4-7.4-7.4c0-0.1,0-0.3,0-0.4v0c0-0.1,0-0.3,0-0.4c0.2-4,3.4-7.2,7.4-7.4c0.1,0,0.3,0,0.4,0
		C16.3,5.7,19.8,9.2,19.8,13.5L19.8,13.5z"/>
	<path class="st0" d="M15.7,9.2c-0.3,0.2-3.2,2.2-4.6,3.3c-0.6,0.4-0.9,1-0.9,1.5c0,0.4,0.2,0.8,0.5,1.1c0.3,0.3,0.7,0.4,1,0.4
		c0.1,0,0.1,0,0.2,0c0.5-0.1,0.9-0.4,1.2-0.8c1-1.6,2.9-4.7,3.1-5c0.1-0.1,0-0.3-0.1-0.4C16,9.2,15.8,9.2,15.7,9.2z"/>
</g>
</svg>
