<?xml version="1.0" encoding="utf-8"?>
<!-- Generator: Adobe Illustrator 24.3.0, SVG Export Plug-In . SVG Version: 6.00 Build 0)  -->
<svg version="1.1" id="Ebene_1" xmlns="http://www.w3.org/2000/svg" xmlns:xlink="http://www.w3.org/1999/xlink" x="0px" y="0px"
	 viewBox="0 0 24 24" style="enable-background:new 0 0 24 24;" xml:space="preserve">
<style type="text/css">
	.st0{fill:#F2A900;}
</style>
<path class="st0" d="M10.1,0c-5-0.4-9.4,3.3-9.8,8.3c-0.4,5,3.3,9.4,8.3,9.8c2,0.2,3.6-0.1,5.1-1c0.1,0.1,0.1,0.2,0.2,0.2l5.8,6
	c0.8,0.8,2,0.8,2.8,0.1l0.7-0.7c0.8-0.8,0.8-2,0.1-2.8l-5.8-6c-0.1-0.1-0.1-0.1-0.2-0.2c0.7-1.1,0.9-2.3,1.1-3.8
	C18.7,4.9,15,0.5,10.1,0z M15.9,9.6c-0.3,3.6-3.5,6.3-7.1,6c-3.6-0.3-6.3-3.5-6-7.1s3.5-6.3,7.1-6C13.5,2.8,16.2,6,15.9,9.6z"/>
</svg>
